<svg id="svg-logo" data-name="Layer 1" xmlns="http://www.w3.org/2000/svg" viewBox="0 0 273.15 135.71" style="height:36px; margin-top:18px; margin-bottom:10px; margin-left:18px; width:auto;"><defs><style>.cls-1{fill:#b3d9ea}.cls-2{fill:#05485c}</style></defs><path class="cls-1" d="M314.58,128a15.34,15.34,0,0,0-8.26-8.38c-3.93-1.87-65.89-19.18-123.47-19.18S63.35,117.73,59.39,119.59A15.33,15.33,0,0,0,51.12,128c-1.54,3.81-4.85,21.21-4.85,40.32s3.31,36.45,4.85,40.29A15.5,15.5,0,0,0,59.39,217c4,1.82,65.89,19.15,123.46,19.15S302.39,218.8,306.32,217a15.51,15.51,0,0,0,8.26-8.39c1.54-3.84,4.84-21.24,4.84-40.29S316.12,131.78,314.58,128Z" transform="translate(-46.27 -100.41)"></path><path class="cls-2" d="M133,166.33c3.36-2.52,5.76-6.64,5.76-10.2,0-9.27-6.89-14.75-18.35-14.75H102.31c-1.72,0-2.76.86-2.76,2.31v49.43c0,1.42,1.08,2.35,2.76,2.35h19.36c11.5,0,18.94-6.57,18.94-16.77A13.68,13.68,0,0,0,133,166.33m-12.75-4.25h-8.66V150.87h8.53c4.25,0,6.57,2,6.57,5.42,0,2.68-1.7,5.79-6.43,5.79m-8.66,9.37h8.89c7.16,0,7.94,5.18,7.94,7.4,0,4.31-2.68,7-7,7h-9.84Z" transform="translate(-46.27 -100.41)"></path><path class="cls-2" d="M186,184.56H163.64v-12h18.2a2.42,2.42,0,0,0,2.55-2.64v-5.41a2.48,2.48,0,0,0-2.65-2.79h-18.1v-9.82h22a2.61,2.61,0,0,0,2.62-2.77v-5.41a2.59,2.59,0,0,0-2.74-2.65H154.42a2.52,2.52,0,0,0-2.73,2.65v49.1a2.58,2.58,0,0,0,2.73,2.64H186a2.49,2.49,0,0,0,2.65-2.76v-5.5a2.56,2.56,0,0,0-2.65-2.65" transform="translate(-46.27 -100.41)"></path><path class="cls-2" d="M225.05,184.56l-13.35,0v-41a2.36,2.36,0,0,0-2.65-2.44H202.4a2.41,2.41,0,0,0-2.7,2.56v49.19a2.55,2.55,0,0,0,2.77,2.64h22.69a2.45,2.45,0,0,0,2.53-2.76v-5.5a2.49,2.49,0,0,0-2.65-2.65" transform="translate(-46.27 -100.41)"></path><path class="cls-2" d="M263.5,184.56l-13.36,0v-41a2.36,2.36,0,0,0-2.68-2.44H240.8a2.4,2.4,0,0,0-2.64,2.56v49.19a2.52,2.52,0,0,0,2.77,2.64h22.65a2.48,2.48,0,0,0,2.56-2.76v-5.5a2.49,2.49,0,0,0-2.64-2.65" transform="translate(-46.27 -100.41)"></path></svg>